REM MD5 782b392e6072e79b83cbbd93a6fdefac
FILE "Tactics Ogre (USA).bin" BINARY
  TRACK 01 MODE2/2352
    INDEX 01 00:00:00
  TRACK 02 AUDIO
    INDEX 00 02:40:32
    INDEX 01 02:42:32
  TRACK 03 AUDIO
    INDEX 00 04:04:60
    INDEX 01 04:06:60
REM LEADOUT 07:36:67
